<svg id="Logo" xmlns="http://www.w3.org/2000/svg" width="130" height="30" viewBox="0 0 269.9 60">
  <g id="Group_1" data-name="Group 1">
    <path id="Path_1" data-name="Path 1" d="M89.7,10.7V36.9H85.5V10.7H81.3l1.6-2.9H94.5l-1.7,2.9Z" fill="#fff"/>
    <path id="Path_2" data-name="Path 2" d="M118.1,24.7l-.6.2,5.8,11.6-3.6.9-7.3-15.2h1a5.857,5.857,0,0,0,3.9-1.1c.7-.7,1.1-2,1.1-3.9v-.8a6.931,6.931,0,0,0-1.2-4.5q-1.2-1.2-4.2-1.2h-1.1V36.9h-4.2V7.8h5.7c3.4,0,5.8.6,7.3,1.8s2.3,3.5,2.3,6.9V17a12.5,12.5,0,0,1-.5,3.6,7.06,7.06,0,0,1-1.4,2.6,4.723,4.723,0,0,1-1.8,1.2A9.1,9.1,0,0,0,118.1,24.7Z" fill="#fff"/>
    <path id="Path_3" data-name="Path 3" d="M137.5,7.8h4.2V36.9h-4.2Z" fill="#fff"/>
    <path id="Path_4" data-name="Path 4" d="M168.2,36l-4.1-19.6-5,21.2L155,37l7.1-27.5,3.6-2.4L168.5,23l3-13.6L175.2,7l6,29.9-3.9.5-3.9-21.2Z" fill="#fff"/>
    <path id="Path_5" data-name="Path 5" d="M201.3,15.7l-5.4,21.7-4.4-.5,7.8-27.6,3.8-2.4,7.9,30-4,.5Z" fill="#fff"/>
    <path id="Path_6" data-name="Path 6" d="M201.3,36.1l-4.1-3.6h8.2Z" fill="#fff"/>
    <path id="Path_7" data-name="Path 7" d="M233.9,24.7l-.6.2,5.8,11.6-3.6.9-7.3-15.2h1a5.857,5.857,0,0,0,3.9-1.1c.7-.7,1.1-2,1.1-3.9v-.8a6.931,6.931,0,0,0-1.2-4.5q-1.2-1.2-4.2-1.2h-1.1V36.9h-4.2V7.8h5.7c3.4,0,5.8.6,7.3,1.8s2.3,3.5,2.3,6.9V17a12.5,12.5,0,0,1-.5,3.6,7.06,7.06,0,0,1-1.4,2.6,4.723,4.723,0,0,1-1.8,1.2A9.1,9.1,0,0,0,233.9,24.7Z" fill="#fff"/>
    <path id="Path_8" data-name="Path 8" d="M251.4,36.9V7.8h4.2V36.9Zm15.1.9-10.3-14L266,6.9,269.7,8l-9.5,15.7,9.7,12.8Z" fill="#fff"/>
  </g>
  <g id="Group_2" data-name="Group 2">
    <path id="Path_9" data-name="Path 9" d="M30,0A30,30,0,1,0,60,30,29.96,29.96,0,0,0,30,0Zm0,57.6A27.65,27.65,0,1,1,57.6,30,27.677,27.677,0,0,1,30,57.6Z" fill="#fff"/>
    <path id="Path_10" data-name="Path 10" d="M30,4.8A25.2,25.2,0,1,0,55.1,30,25.223,25.223,0,0,0,30,4.8ZM19.4,12l14.5,8.4L19.4,28.8V12Zm0,36V31.3l14.5,8.4Zm16.7-9.6V21.7L50.6,30Z" fill="#fff"/>
  </g>
  <g id="Group_3" data-name="Group 3">
    <path id="Path_11" data-name="Path 11" d="M128.2,52.1a5.446,5.446,0,0,1-1.8,4.4,6.7,6.7,0,0,1-4.6,1.5h-2.6V46.4H122a6.915,6.915,0,0,1,4.5,1.4A5.643,5.643,0,0,1,128.2,52.1Zm-1.6,0a4.293,4.293,0,0,0-1.4-3.4,5.336,5.336,0,0,0-3.6-1h-1v8.9h1.1a5.331,5.331,0,0,0,3.4-1.1A4.061,4.061,0,0,0,126.6,52.1Z" fill="#fff"/>
    <path id="Path_12" data-name="Path 12" d="M141.3,58h-1.5V46.4h1.5Z" fill="#fff"/>
    <path id="Path_13" data-name="Path 13" d="M164.3,52.6a5.677,5.677,0,0,1-1.5,4,5.2,5.2,0,0,1-4,1.6,5.816,5.816,0,0,1-4.3-1.8,5.756,5.756,0,0,1-1.8-4.2,5.816,5.816,0,0,1,1.8-4.3,6.039,6.039,0,0,1,4.4-1.8,5.965,5.965,0,0,1,4.8,2.4l-1.2,1a5.391,5.391,0,0,0-1.6-1.4,4.2,4.2,0,0,0-2.1-.6,4.668,4.668,0,0,0-3.3,7.9,4.534,4.534,0,0,0,3.3,1.4,3.656,3.656,0,0,0,2.5-.9,3.47,3.47,0,0,0,1.2-2.3h-2.7V52.1h4.5v.5Z" fill="#fff"/>
    <path id="Path_14" data-name="Path 14" d="M177.3,58h-1.5V46.4h1.5Z" fill="#fff"/>
    <path id="Path_15" data-name="Path 15" d="M195.4,47.7h-2.8V58h-1.5V47.7h-2.8V46.4h7.1v1.3Z" fill="#fff"/>
    <path id="Path_16" data-name="Path 16" d="M216.2,58h-1.8l-1.3-3h-4.8L207,58h-1.7l5.4-12.1Zm-3.6-4.3-1.8-4.3L209,53.7Z" fill="#fff"/>
    <path id="Path_17" data-name="Path 17" d="M232.2,58h-5V46.4h1.5V56.7h3.5V58Z" fill="#fff"/>
  </g>
</svg>